<svg style="position: absolute; width: 100px; height: 100px;" width="100px" height="100px" version="1.1" xmlns="http://www.w3.org/2000/svg" xmlns:xlink="http://www.w3.org/1999/xlink" fill="rgba(228, 125, 88, 1)">
<defs>
<symbol id="icon-eye" viewBox="0 0 1024 1024">
	<title>eye</title>
	<path class="path1" d="M512 192c-282.784 0-512 320-512 320s229.216 320 512 320 512-320 512-320-229.216-320-512-320zM512 704c-106.016 0-192-85.984-192-192s85.984-192 192-192 192 85.984 192 192-85.984 192-192 192zM512 384c-70.688 0-128 57.312-128 128s57.312 128 128 128 128-57.312 128-128-57.312-128-128-128z"></path>
</symbol>
<symbol id="icon-quill" viewBox="0 0 1024 1024">
	<title>quill</title>
	<path class="path1" d="M0 1024c128-384 463-1024 1024-1024-263 211-384 704-576 704s-192 0-192 0l-192 320h-64z"></path>
</symbol>
</defs>
</svg>
